<svg xmlns="http://www.w3.org/2000/svg" width="221" height="137" fill="none"><circle cx="55" cy="55" r="55" fill="#2578FF" transform="scale(-1 1) rotate(15 -53.126 -403.532)"/><path fill="#05192D" stroke="#05192D" stroke-width=".455" d="m87.341 47.693 7.384 27.556c1.562 5.829-1.901 11.826-7.73 13.388l-27.556 7.384c-5.829 1.561-11.826-1.901-13.388-7.73l-7.384-27.556c-1.562-5.829 1.901-11.827 7.73-13.388l27.556-7.384c5.829-1.562 11.826 1.9 13.388 7.73Z"/><path fill="#fff" d="m84.59 74.488-6.11-22.8a2.877 2.877 0 0 0-3.525-2.035l-22.8 6.11c-1.684.45-1.97 2.696-.462 3.546l30.085 17.37c1.46.864 3.255-.532 2.811-2.19Z"/><circle cx="55" cy="55" r="55" fill="#960000" transform="scale(-1 1) rotate(-15 4.832 852.216)"/><path fill="#fff" d="M168.98 52.97c-5.193 1.414-9.392 2.878-13.301 4.645-.572.262-1.185.52-1.356.587-.71.252-1.354.864-1.741 1.648-.127.25-.37.972-.638 1.866-.262.866-.521 1.627-.637 1.861-.232.468-.799 1.162-1.09 1.313-.209.118-.939.119-2.597.001-.381-.025-.991-.06-1.36-.082-.493-.018-.682-.048-.726-.115-.122-.167-.169-.578-.1-.843.058-.224.105-.285.308-.405.376-.221.974-.158 1.525.157.111.066.122.05.193-.226.132-.507-.019-.847-.684-1.504-.62-.615-.771-.93-.658-1.368.085-.328.269-.421.643-.324.236.06.409.173.886.561.323.268.647.512.724.544.122.05.153.028.256-.18.077-.157.118-.337.127-.562.016-.413-.177-.807-.761-1.536-.432-.535-.653-.961-.649-1.236-.005-.075.069-.222.164-.326.125-.152.209-.191.392-.187.196.002.317.058.794.372.31.203.651.402.759.436l.196.07.112-.432c.09-.37.096-.484.02-.786-.119-.461-.474-.99-.96-1.41-.366-.316-.383-.345-.269-.407.208-.112.453-.11 1.06.01.562.104.581.102.616-.03.052-.201-.051-.609-.219-.837-.081-.113-.348-.385-.599-.603-.63-.55-.76-.738-.839-1.188-.087-.52-.069-.73.081-.998.19-.331.729-.61 1.758-.907.65-.187.883-.28.905-.366.032-.121-.143-.277-.379-.338-.138-.036-.136-.042-.006-.542.071-.276.208-.683.298-.911.095-.227.155-.433.148-.453-.013-.022-.198.004-.409.06-.492.123-.992.178-2.063.213-1.135.043-1.723.111-2.262.272-.685.203-1.32.094-2.832-.49-.245-.1-.75-.28-1.127-.414-1.518-.536-2.604-.468-3.364.213l-.322.291-.354-.055-1.088-.184c-2.21-.378-3.696-.26-4.791.389-.348.204-.773.542-.838.673-.048.092.468.207 1.519.345.878.117 1.957.385 2.335.582.362.192.534.402.705.858.074.21.23.532.335.72l.189.337-.238-.031c-.946-.117-4.647-1.065-4.728-1.203-.013-.022.182-.088.438-.15.456-.103.61-.198.537-.321-.021-.036-.355-.215-.737-.4-1.192-.586-2.661-1.6-3.777-2.62-.259-.233-.482-.414-.502-.407-.074.049.02.963.169 1.665.374 1.706 1.298 3.302 2.522 4.381.244.217.491.404.548.419.127.033.124-.03.032-.692-.033-.248-.047-.454-.033-.462.029-.018 2.479.717 4.137 1.233l.766.242.05.234c.028.13.007.542-.034.912-.178 1.489-.14 1.91.23 2.258.113.109.237.178.266.16.03-.022.272-.34.526-.704.26-.362.493-.67.521-.681.026-.006.083.107.119.252.113.416.261.411.659-.032.585-.646 1.624-1.15 2.144-1.046.162.036.184.073.224.341l.04.299-.344.236c-.456.312-.994.92-1.576 1.789-.57.847-1.103 1.506-1.393 1.726-.328.246-.538.51-.863 1.077-.343.611-.541.854-.848 1.02-.194.11-.234.167-.301.426-.081.31-.477 1.055-1.142 2.153-.697 1.145-.896 2.1-.594 2.879l.115.288-.216.22c-.117.117-.33.252-.466.302-.699.236-1.416-.171-2.628-1.486-.566-.614-.591-.657-.691-1.076-.089-.391-.41-1.021-.632-1.232-.06-.053-.064-.226-.021-.583.078-.655.078-1.625-.009-2.777l-.064-.913.191-.098c.102-.06.324-.162.495-.228.748-.303 1.141-.612 1.234-.969.027-.103.182-.487.349-.848.343-.753.444-1.212.331-1.486-.093-.233-.367-.55-.44-.507-.03.022-.198.243-.376.504-.171.256-.407.55-.523.643-.191.166-.606.322-.648.25-.007-.02.042-.161.111-.31.254-.529.297-1.358.095-2-.24-.8-.919-1.498-1.615-1.678-.322-.084-.338.096-.05.527.308.467.347.741.189 1.35-.106.41-.662 1.701-.88 2.044-.031.047-.067-.073-.099-.284-.109-.832-.545-1.658-1.115-2.137-.307-.258-.395-.299-.861-.42-.489-.127-.519-.129-.567-.012-.034.083.016.219.164.454.257.404.325.76.269 1.47-.021.295-.057.764-.077 1.054-.069.903.121 1.45.636 1.853l.224.181-.104.256c-.061.143-.226.61-.366 1.034-.569 1.67-.979 2.282-1.948 2.914-.478.306-.656.518-.899 1.05-.346.788-.667.987-1.422.89-.047-.006-.113.057-.148.146-.052.127-.033.175.121.289.436.334 1.255.393 2.054.152.745-.218.933-.377 1.55-1.286.356-.521.761-.944.809-.846.021.037.062.305.095.602.094.774.335 1.88.543 2.474.174.487.35.803 1.499 2.692 1.202 1.97 1.814 4.295 1.71 6.54-.01.274-.002.503.027.51.023.007.2-.107.39-.248.33-.252.775-.738 1.568-1.711l.36-.441.409-.016c.553-.023 1.241.07 2.092.29l.707.184-.047.184c-.062.236-.277.5-.76.94-.412.383-.646.69-.713.95-.028.11-.19.306-.446.535-.41.372-.785.895-.867 1.211-.122.472-1.228 1.253-2.015 1.424-.969.209-1.667.058-2.395-.518-1.308-1.04-2.131-1.51-3.049-1.761-.441-.12-.595-.142-.737-.093-.208.069-.473.38-.623.722-.124.287-.091.302.452.197.394-.075.4-.074.546.074.145.149.191.4.14.737l-.027.177-.542-.067c-.911-.108-1.471-.008-1.918.343-.192.147-.497.614-.456.692.014.016.184.023.373.005.903-.073 1.636.13 2.004.557.217.253.211.3-.021.295-.261-.012-.689.171-.961.414-.276.235-.641.767-.708 1.026-.069.264.149.278.67.044.778-.35 1.059-.345 1.462.018.358.326 1.051.518 1.69.47a5.338 5.338 0 0 0 1.018-.185c.998-.3.832-.3 1.88.016.871.263.953.278 1.172.218.614-.166.795-.18 1.089-.08.326.116.726.44 1.073.88.453.572.858.739 1.945.806.787.045 1.388.189 1.647.397.108.083.206.152.224.156.092.024.149-.526.086-.83-.149-.702-.651-1.109-2.225-1.812-.33-.147-.734-.338-.887-.415-.331-.165-.338-.137.146-.846.633-.922 1.391-1.524 3.625-2.871.903-.546 1.763-1.09 1.911-1.211.147-.116.283-.215.3-.21.018.004.047.27.074.59.022.318.119 1.03.217 1.578.15.862.19.995.312 1.045.183.072.265-.005.99-.953.903-1.183 1.282-1.509 1.911-1.64.317-.059.468-.05 1.046.063.606.126.715.13 1.154.048.27-.047.741-.158 1.048-.25.961-.273 1.715-.316 2.135-.115.175.082.178.095.136.496-.075.784.146 1.327.92 2.295.274.341.497.663.5.725.019.35.603.87 1.374 1.21.771.342 1.491.879 1.442 1.069-.041.155-.587.486-1.326.803-.429.184-.825.364-.885.403-.055.047-.18.058-.272.034-.098-.025-.539-.054-.979-.064-.641-.013-.896-.048-1.282-.167-.7-.212-1.009-.489-1.62-1.446-.272-.42-.597-.848-.743-.972-.256-.22-.289-.235-.978-.37-.941-.184-1.405-.169-1.818.074a1.126 1.126 0 0 0-.458.464c-.085.162-.136.309-.114.345.025.043.276.023.598-.035.329-.062.603-.077.662-.043.052.038.184.238.289.45.212.435.452.67 1.107 1.079.242.155.511.347.597.419.16.14.439.556.42.63-.021.081-.457.01-.711-.123a7.042 7.042 0 0 1-.826-.6l-.568-.461-.649-.126c-1.461-.287-2.184-.125-2.609.588-.352.578-.265.668.463.488.591-.147.493-.197 1.089.535l.316.389-.217.128c-.311.183-.475.386-.605.745-.112.315-.109.776.006.806.023.006.123-.048.216-.122.287-.233.631-.254 1.435-.088.716.149 1.121.15 1.424.001.171-.09.951-.14 1.418-.092.233.024.948.178 1.586.344.633.164 1.405.334 1.712.383l.551.076.597.517c1.191 1.04 1.854 1.371 2.67 1.325l.424-.025.372.342c.424.4.551.457.6.267.061-.236.024-.614-.081-.893-.229-.588-.894-1.123-2.087-1.684-.356-.166-.624-.315-.595-.332.028-.012.313-.048.622-.078 2.112-.213 4.273-1.09 5.904-2.403.334-.27.643-.54.697-.605.053-.06.131-.101.183-.088.051.014.468.275.928.585.917.606 1.458.913 1.538.866.072-.043.182-.917.162-1.266a2.002 2.002 0 0 0-.392-1.041c-.106-.138-.504-.401-1.271-.852-1.256-.743-1.789-1.103-2.288-1.57-.296-.28-.357-.375-.425-.681-.073-.308-.067-.404.036-.728.096-.3.172-.428.405-.662.33-.326 1.723-1.174 1.878-1.133.201.052.717.548 1.208 1.166.277.349.564.687.638.756.209.19 2.169 1.25 2.713 1.471.277.115.658.233.859.26.313.05.408.088.641.277.345.28.764.462 1.845.792 1.342.41 1.769.68 2.117 1.33.161.3.162.343.097.995-.093.952-.274 1.789-.478 2.245-.174.385-.534.875-.734 1.007-.067.044-.157.224-.24.497-.214.706-.748 1.156-1.52 1.293-.315.054-.412.047-.843-.09-.743-.235-1.052-.536-1.969-1.898-.771-1.146-.724-1.115-1.516-1.161-1.149-.065-1.719.143-1.975.727-.105.237-.101.244.041.244.65.003.768.022.997.155.241.136.548.584.477.695-.021.031-.262.085-.54.117-1.033.125-1.697.364-2.028.739a1.683 1.683 0 0 0-.253.456c-.114.296-.11.303.04.342.08.02.288-.024.474-.098.481-.2.592-.203.945 0 .367.218.787.326 1.649.434 1.03.126 1.062.19.216.375-.924.202-1.57.538-2.014 1.043-.168.196-.33.442-.357.546-.043.166-.033.2.093.233.075.019.329-.013.559-.07.526-.134 1.09-.178 1.354-.11.391.102.944.055 1.607-.135 1.195-.346 1.496-.324 2.107.16.633.496 1.056.594 2.29.521 1.073-.065 1.455.096 2.448 1.047.508.482.549.511.76.504.641-.011 1.102.151 1.583.57.15.132.29.254.312.266.091.073.183-.542.123-.852-.077-.413-.297-.703-.929-1.224-.273-.224-.657-.545-.854-.706-.608-.496-.859-1.021-.736-1.518.03-.115.237-.558.464-.984 1.318-2.476 1.908-4.25 1.996-6.008.012-.261.033-.483.048-.492.013-.002.163.153.327.35.169.197.476.504.682.68.344.286.424.331.844.44.552.143.684.11.702-.174.033-.482-.148-.898-.681-1.564-.92-1.16-2.156-2.432-3.904-4.022-.476-.437-.886-.82-.903-.848-.017-.03.163-.038.403-.018 2.266.189 4.304-.025 6.086-.643.876-.3 2.281-1.103 2.858-1.622 1.093-.993 1.669-2.526 1.603-4.305-.008-.279.018-.45.108-.678.12-.295.244-.49 1.144-1.803l.417-.616.364.634c.389.678.846 1.233 1.38 1.66.578.47.597.444.508-.752a16.037 16.037 0 0 1 .092-2.837c.162-1.284.804-3.807 1.43-5.603l.17-.49-.167-.043c-.145-.032-.267.035-.83.454-1.275.94-2.862 1.946-5.482 3.476-1.852 1.079-2.636 1.569-2.638 1.648-.013.169.442.33 1.888.675.739.18 1.277.331 1.269.36-.034.132-1.032 1.254-1.077 1.218-.581-.458-.9-.675-1.328-.916-.443-.256-.634-.324-1.433-.537-1.092-.284-1.491-.308-2.361-.128-.951.189-1.77.694-2.159 1.318-.245.397-.431 1.067-.432 1.57.004.53.129.967.423 1.467.29.493.756.896 1.446 1.24.5.253 1.594.531 2.348.604.84.077.846.079.397.318-.471.252-1.128.395-1.791.395-1.092-.001-3.105-.597-4.532-1.343-1.534-.809-2.127-1.03-4.094-1.541-.977-.26-1.765-.489-1.757-.518.006-.023.294-.212.648-.415.729-.418 1.444-.62 2.362-.657.509-.022.64-.006 1.52.223.537.133.968.245.968.245s-.086-.354-.194-.788c-.272-1.083-.296-1.39-.179-1.986.239-1.178 1.302-2.413 2.759-3.201.972-.527 2.362-.94 3.545-1.05.371-.033.493-.075.528-.164.031-.072.017-.137-.046-.178a8.771 8.771 0 0 1-.557-.458c-.829-.706-1.053-1.36-.685-2.02.495-.89 1.292-1.475 3.336-2.443 1.099-.519 2.158-1.122 2.189-1.243.007-.029-.401-.018-.908.022-.89.07-1.467.141-5.189.643-1.704.226-3.425.375-4.404.385-.552-.002-.565 0-.832-.179-.766-.5-.95-1.4-.521-2.487.233-.59.695-1.305 1.217-1.894l.426-.485-.149-.039c-.092-.024-.757.123-1.609.356Zm-28.543-1.608c.342.218.912.814.919.95-.002.055-.059.065-.169.037-.092-.024-.528-.07-.974-.1-1.032-.071-2.016-.253-1.986-.368.04-.156.141-.19.363-.12.194.056.238.049.3-.07.044-.075.099-.122.128-.114l.228.114.174.088.107-.414.109-.42.237.105c.126.057.379.196.564.312Zm36.627 18.975c.255.177.559.495.662.688.07.134.061.144-.239.306-.578.31-1.421.294-1.974-.034-.341-.199-.7-.71-.648-.91.038-.144.391-.372.666-.436.437-.101 1.053.059 1.533.386Z"/></svg>